<?xml version="1.0" encoding="utf-8"?>
<!-- Generator: Adobe Illustrator 26.5.0, SVG Export Plug-In . SVG Version: 6.00 Build 0)  -->
<svg version="1.1" xmlns="http://www.w3.org/2000/svg" xmlns:xlink="http://www.w3.org/1999/xlink" x="0px" y="0px"
	 viewBox="0 0 595.28 841.89" style="enable-background:new 0 0 595.28 841.89;" xml:space="preserve">
<style type="text/css">
	.st0{fill:#010202;}
</style>
<g id="Camada_2">
</g>
<g id="SÃMBOLO_1">
	<g>
		<path class="st0" d="M386.62,583.66l4.51-4.51l32.37-32.33l52.15-52.19l4.47-4.47l6.32-6.28l62.94-62.94L423.51,295.07
			l-36.89-36.89l-26.05-26.05l-62.94-62.94l-53.95,53.91l-8.98,9.03l-26.1,26.05l-36.84,36.89l-17.11,17.07l-35.03,35.03
			l-10.79,10.84l-43.16,43.12L45.9,420.94l62.94,62.94l6.28,6.28l4.51,4.51l52.15,52.15l125.87,125.87v-0.05l4.47-4.47l58.47-58.42
			L386.62,583.66z M297.64,546.77v0.05l-56.66-56.66l-6.28-6.28l-62.94-62.94l19.77-19.82l17.07-17.07l26.1-26.05l45.82-45.87
			l17.11-17.07l125.87,125.87l-36.89,36.84l-26.05,26.1l-6.32,6.28L297.64,546.77z"/>
	</g>
</g>
</svg>
