<svg width="206" height="151" viewBox="0 0 206 151" fill="none" xmlns="http://www.w3.org/2000/svg">
<path d="M150.345 101.573L139.128 90.3411L134.119 85.337L133.254 84.4709L127.049 78.2506L117.028 68.2348L116.17 67.3763L114.966 66.1639L102.883 54.0734L78.7178 78.2544L71.6359 85.3407L66.635 90.3449L54.5522 102.435L64.9003 112.801L66.635 114.526L71.6359 119.538L78.7178 126.616L81.9953 129.903L88.7197 136.632L90.8006 138.707L99.079 146.998L102.883 150.797L114.966 138.707L116.17 137.502L117.036 136.636L127.045 126.62L151.211 102.439H151.203L150.345 101.573ZM116.167 113.317L114.962 114.522L102.88 126.613L99.0753 122.813L95.7977 119.534L90.7968 114.522L81.9915 105.719L78.714 102.432L102.88 78.2506L109.954 85.337L114.962 90.3411L116.167 91.5535L127.038 102.432H127.045L116.167 113.317Z" fill="#E4E4E7"/>
<path d="M193.085 36.4779L191.881 35.273L191.015 34.407L181.006 24.3912L156.84 0.210205V0.213968L155.982 1.07246L144.757 12.2969L139.756 17.3086L138.891 18.1746L132.675 24.3837L122.665 34.4108L121.807 35.2693L120.595 36.4742L108.513 48.5647L132.678 72.7457L139.76 79.832L144.761 84.8362L156.844 96.9267L167.203 86.572L168.927 84.8362L173.935 79.832L181.009 72.7457L184.294 69.4661L191.019 62.7374L193.092 60.6552L201.378 52.3714L205.175 48.5647L193.085 36.4779ZM177.205 52.3752L173.928 55.6548L168.919 60.6589L160.121 69.4698L156.836 72.7494L132.671 48.5684L139.753 41.4896L144.754 36.4779L145.965 35.273L156.836 24.395V24.3874L167.715 35.273L168.919 36.4779L181.002 48.5684L177.205 52.3752Z" fill="#E4E4E7"/>
<path d="M66.2474 79.8283L67.1129 78.9622L73.3293 72.7532L83.3387 62.7261L84.1966 61.8676L85.4083 60.6627L97.4911 48.5722L73.3255 24.3912L66.2437 17.3048L61.2427 12.3007L49.1599 0.210205L38.8006 10.5649L37.0771 12.3007L32.0687 17.3048L24.9944 24.3912L21.7093 27.6708L14.9849 34.3995L12.9116 36.4817L4.62559 44.7654L0.828786 48.5722L12.9116 60.6627L14.1157 61.8676L14.9812 62.7336L24.9906 72.7494L49.1562 96.9304V96.9229L50.0141 96.0644L61.2389 84.8399L66.2474 79.8283ZM49.1637 72.7419V72.7494L38.285 61.8638L37.0809 60.6589L24.9981 48.5684L28.7949 44.7617L32.0724 41.4821L37.0809 36.4779L45.8786 27.667L49.1637 24.3874L73.3293 48.5684L66.2474 55.6473L61.2465 60.6589L60.0348 61.8638L49.1637 72.7419Z" fill="#E4E4E7"/>
</svg>
